<svg width="1468" height="1000" viewBox="0 0 1468 1000" fill="none" xmlns="http://www.w3.org/2000/svg">
<g opacity="0.8">
<rect width="8" height="241" rx="4" transform="matrix(-0.819152 0.573576 0.573576 0.819152 240.553 -38)" fill="url(#paint0_linear)"/>
<rect width="6" height="181" rx="3" transform="matrix(-0.819152 0.573576 0.573576 0.819152 611.915 -56)" fill="url(#paint1_linear)"/>
<rect width="9" height="70" rx="4.5" transform="matrix(-0.819152 0.573576 0.573576 0.819152 917.372 105)" fill="url(#paint2_linear)"/>
<rect width="30" height="400" rx="15" transform="matrix(-0.819152 0.573576 0.573576 0.819152 275.575 -57)" fill="url(#paint3_linear)"/>
<rect width="23" height="300" rx="11.25" transform="matrix(-0.819152 0.573576 0.573576 0.819152 321.84 -167)" fill="url(#paint4_linear)"/>
<rect width="19" height="400" rx="9.5" transform="matrix(-0.819152 0.573576 0.573576 0.819152 1238.56 -139)" fill="url(#paint5_linear)"/>
<rect width="19" height="400" rx="9.5" transform="matrix(-0.819152 0.573576 0.573576 0.819152 973.564 575)" fill="url(#paint6_linear)"/>
<rect opacity="0.312783" width="4.84701" height="241" rx="2.42351" transform="matrix(-0.809017 0.587785 0.587785 0.809017 568.921 513)" fill="url(#paint7_linear)"/>
<rect opacity="0.312783" width="4.84701" height="241" rx="2.42351" transform="matrix(-0.809017 0.587785 0.587785 0.809017 714.921 871)" fill="url(#paint8_linear)"/>
<rect opacity="0.312783" width="4.84701" height="241" rx="2.42351" transform="matrix(-0.809017 0.587785 0.587785 0.809017 899.921 659)" fill="url(#paint9_linear)"/>
<rect width="4.84701" height="100" rx="2.42351" transform="matrix(-0.809017 0.587785 0.587785 0.809017 515.921 483)" fill="url(#paint10_linear)"/>
<rect opacity="0.169044" width="6.85" height="75" rx="3.425" transform="matrix(-0.809017 0.587785 0.587785 0.809017 28.542 112.713)" fill="url(#paint11_linear)"/>
<rect opacity="0.312783" width="8" height="241" rx="4" transform="matrix(-0.809017 0.587785 0.587785 0.809017 705.472 567)" fill="url(#paint12_linear)"/>
<rect width="4.84701" height="241" rx="2.42351" transform="matrix(-0.809017 0.587785 0.587785 0.809017 -69.0786 307)" fill="url(#paint13_linear)"/>
<rect opacity="0.143965" width="12" height="241" rx="6" transform="matrix(-0.809017 0.587785 0.587785 0.809017 -101.292 307)" fill="url(#paint14_linear)"/>
</g>
<defs>
<linearGradient id="paint0_linear" x1="-4.54239" y1="-401.319" x2="-34.9406" y2="-400.96" gradientUnits="userSpaceOnUse">
<stop stop-color="#8468F5"/>
<stop offset="1" stop-color="#EC74E7"/>
</linearGradient>
<linearGradient id="paint1_linear" x1="24.5769" y1="-808.909" x2="-26.5982" y2="-808.584" gradientUnits="userSpaceOnUse">
<stop stop-color="#8468F5"/>
<stop offset="1" stop-color="#EC74E7"/>
</linearGradient>
<linearGradient id="paint2_linear" x1="0.103176" y1="-205.017" x2="-46.9301" y2="-202.265" gradientUnits="userSpaceOnUse">
<stop stop-color="#8468F5"/>
<stop offset="1" stop-color="#EC74E7"/>
</linearGradient>
<linearGradient id="paint3_linear" x1="-17.034" y1="-666.089" x2="-130.962" y2="-663.056" gradientUnits="userSpaceOnUse">
<stop stop-color="#8468F5"/>
<stop offset="1" stop-color="#EC74E7"/>
</linearGradient>
<linearGradient id="paint4_linear" x1="80.0602" y1="-1557.11" x2="-161.28" y2="-1554.5" gradientUnits="userSpaceOnUse">
<stop stop-color="#8468F5"/>
<stop offset="0.946455" stop-color="#E673E8"/>
<stop offset="1" stop-color="#EC74E7"/>
</linearGradient>
<linearGradient id="paint5_linear" x1="-10.7882" y1="-666.089" x2="-82.9734" y2="-664.872" gradientUnits="userSpaceOnUse">
<stop stop-color="#8468F5"/>
<stop offset="1" stop-color="#EC74E7"/>
</linearGradient>
<linearGradient id="paint6_linear" x1="-10.7882" y1="-666.089" x2="-82.9734" y2="-664.872" gradientUnits="userSpaceOnUse">
<stop stop-color="#8468F5"/>
<stop offset="1" stop-color="#EC74E7"/>
</linearGradient>
<linearGradient id="paint7_linear" x1="-2.75213" y1="-401.319" x2="-21.1713" y2="-401.187" gradientUnits="userSpaceOnUse">
<stop stop-color="#8468F5"/>
<stop offset="1" stop-color="#EC74E7"/>
</linearGradient>
<linearGradient id="paint8_linear" x1="-2.75213" y1="-401.319" x2="-21.1713" y2="-401.187" gradientUnits="userSpaceOnUse">
<stop stop-color="#8468F5"/>
<stop offset="1" stop-color="#EC74E7"/>
</linearGradient>
<linearGradient id="paint9_linear" x1="-2.75213" y1="-401.319" x2="-21.1713" y2="-401.187" gradientUnits="userSpaceOnUse">
<stop stop-color="#8468F5"/>
<stop offset="1" stop-color="#EC74E7"/>
</linearGradient>
<linearGradient id="paint10_linear" x1="-2.75213" y1="-166.522" x2="-21.1668" y2="-166.205" gradientUnits="userSpaceOnUse">
<stop stop-color="#8468F5"/>
<stop offset="1" stop-color="#EC74E7"/>
</linearGradient>
<linearGradient id="paint11_linear" x1="-3.88942" y1="-124.892" x2="-29.8942" y2="-124.049" gradientUnits="userSpaceOnUse">
<stop stop-color="#8468F5"/>
<stop offset="1" stop-color="#EC74E7"/>
</linearGradient>
<linearGradient id="paint12_linear" x1="-4.54239" y1="-401.319" x2="-34.9406" y2="-400.96" gradientUnits="userSpaceOnUse">
<stop stop-color="#8468F5"/>
<stop offset="1" stop-color="#EC74E7"/>
</linearGradient>
<linearGradient id="paint13_linear" x1="-2.75213" y1="-401.319" x2="-21.1713" y2="-401.187" gradientUnits="userSpaceOnUse">
<stop stop-color="#8468F5"/>
<stop offset="1" stop-color="#EC74E7"/>
</linearGradient>
<linearGradient id="paint14_linear" x1="-6.81358" y1="-401.319" x2="-52.403" y2="-400.513" gradientUnits="userSpaceOnUse">
<stop stop-color="#8468F5"/>
<stop offset="1" stop-color="#EC74E7"/>
</linearGradient>
</defs>
</svg>
