<svg width="48" height="48" viewBox="0 0 48 48" fill="none" xmlns="http://www.w3.org/2000/svg">
<g filter="url(#filter0_d)">
<rect x="5" y="1" width="38" height="38" rx="19" fill="url(#paint0_linear)"/>
<path d="M20.6672 20C20.6672 18.1591 22.1591 16.6664 24 16.6664C25.8409 16.6664 27.3336 18.1591 27.3336 20C27.3336 21.8409 25.8409 23.3336 24 23.3336C22.1591 23.3336 20.6672 21.8409 20.6672 20ZM18.8651 20C18.8651 22.836 21.164 25.1349 24 25.1349C26.836 25.1349 29.1349 22.836 29.1349 20C29.1349 17.164 26.836 14.8651 24 14.8651C21.164 14.8651 18.8651 17.164 18.8651 20ZM28.1382 14.6615C28.1381 14.8989 28.2084 15.1309 28.3401 15.3283C28.4719 15.5257 28.6593 15.6796 28.8785 15.7705C29.0977 15.8614 29.339 15.8852 29.5718 15.839C29.8046 15.7928 30.0185 15.6786 30.1863 15.5109C30.3542 15.3431 30.4686 15.1293 30.515 14.8966C30.5614 14.6638 30.5377 14.4225 30.447 14.2032C30.3563 13.9839 30.2025 13.7964 30.0052 13.6645C29.808 13.5326 29.576 13.4621 29.3386 13.462H29.3382C29.02 13.4621 28.715 13.5886 28.49 13.8135C28.265 14.0384 28.1384 14.3434 28.1382 14.6615ZM19.96 28.1398C18.985 28.0954 18.4551 27.933 18.103 27.7958C17.6361 27.614 17.303 27.3975 16.9527 27.0478C16.6025 26.698 16.3857 26.3652 16.2047 25.8983C16.0674 25.5463 15.905 25.0162 15.8607 24.0413C15.8122 22.9872 15.8026 22.6706 15.8026 20.0001C15.8026 17.3296 15.813 17.0138 15.8607 15.9589C15.9051 14.9839 16.0687 14.4549 16.2047 14.1018C16.3865 13.635 16.603 13.3018 16.9527 12.9516C17.3025 12.6014 17.6353 12.3846 18.103 12.2036C18.455 12.0663 18.985 11.9039 19.96 11.8596C21.0141 11.8111 21.3307 11.8014 24 11.8014C26.6693 11.8014 26.9862 11.8119 28.0412 11.8596C29.0162 11.904 29.5452 12.0676 29.8982 12.2036C30.3651 12.3846 30.6982 12.6018 31.0485 12.9516C31.3987 13.3014 31.6147 13.635 31.7965 14.1018C31.9338 14.4538 32.0962 14.9839 32.1405 15.9589C32.189 17.0138 32.1986 17.3296 32.1986 20.0001C32.1986 22.6706 32.189 22.9863 32.1405 24.0413C32.0961 25.0162 31.9329 25.5462 31.7965 25.8983C31.6147 26.3652 31.3982 26.6983 31.0485 27.0478C30.6987 27.3972 30.3651 27.614 29.8982 27.7958C29.5462 27.933 29.0162 28.0954 28.0412 28.1398C26.9871 28.1882 26.6705 28.1979 24 28.1979C21.3295 28.1979 21.0138 28.1882 19.96 28.1398ZM19.8772 10.0606C18.8126 10.109 18.0852 10.2778 17.4499 10.525C16.792 10.7803 16.235 11.1228 15.6785 11.6785C15.1219 12.2342 14.7803 12.792 14.525 13.4499C14.2778 14.0856 14.109 14.8126 14.0606 15.8772C14.0113 16.9434 14 17.2843 14 20C14 22.7157 14.0113 23.0566 14.0606 24.1228C14.109 25.1874 14.2778 25.9144 14.525 26.5501C14.7803 27.2076 15.122 27.7661 15.6785 28.3215C16.235 28.877 16.792 29.219 17.4499 29.475C18.0864 29.7222 18.8126 29.891 19.8772 29.9394C20.944 29.9879 21.2843 30 24 30C26.7157 30 27.0566 29.9887 28.1228 29.9394C29.1874 29.891 29.9144 29.7222 30.5501 29.475C31.2076 29.219 31.765 28.8772 32.3215 28.3215C32.8781 27.7658 33.219 27.2076 33.475 26.5501C33.7222 25.9144 33.8918 25.1874 33.9394 24.1228C33.9879 23.0558 33.9992 22.7157 33.9992 20C33.9992 17.2843 33.9879 16.9434 33.9394 15.8772C33.891 14.8126 33.7222 14.0852 33.475 13.4499C33.219 12.7924 32.8772 12.235 32.3215 11.6785C31.7658 11.1219 31.2076 10.7803 30.5509 10.525C29.9144 10.2778 29.1874 10.1082 28.1236 10.0606C27.0574 10.0121 26.7165 10 24.0008 10C21.2851 10 20.944 10.0113 19.8772 10.0606Z" fill="white"/>
</g>
<defs>
<filter id="filter0_d" x="0" y="0" width="48" height="48" filterUnits="userSpaceOnUse" color-interpolation-filters="sRGB">
<feFlood flood-opacity="0" result="BackgroundImageFix"/>
<feColorMatrix in="SourceAlpha" type="matrix" values="0 0 0 0 0 0 0 0 0 0 0 0 0 0 0 0 0 0 127 0"/>
<feOffset dy="4"/>
<feGaussianBlur stdDeviation="2.5"/>
<feColorMatrix type="matrix" values="0 0 0 0 0 0 0 0 0 0 0 0 0 0 0 0 0 0 0.16 0"/>
<feBlend mode="normal" in2="BackgroundImageFix" result="effect1_dropShadow"/>
<feBlend mode="normal" in="SourceGraphic" in2="effect1_dropShadow" result="shape"/>
</filter>
<linearGradient id="paint0_linear" x1="-16.5764" y1="-62.2784" x2="-144.832" y2="-16.7583" gradientUnits="userSpaceOnUse">
<stop stop-color="#8468F5"/>
<stop offset="1" stop-color="#EC74E7"/>
</linearGradient>
</defs>
</svg>
