<svg width="17" height="17" viewBox="0 0 17 17" fill="none" xmlns="http://www.w3.org/2000/svg">
<path fill-rule="evenodd" clip-rule="evenodd" d="M15.2045 0.139091L0.669134 8.39106C0.0704262 8.72794 0.0941905 9.22746 0.723562 9.4963L2.57718 10.2904C3.20272 10.5559 4.15176 10.4107 4.68531 9.96013L12.746 3.08225C13.2757 2.62837 13.3332 2.69641 12.8717 3.23078L6.49983 10.6148C6.03757 11.1459 6.17633 11.7972 6.80416 12.0636L7.02111 12.1532C7.64971 12.4171 8.67618 12.8577 9.29942 13.1365L11.3592 14.0409C11.9856 14.3164 12.4946 14.5462 12.4976 14.5495C12.4976 14.5529 12.5007 14.5653 12.5038 14.5653C12.5061 14.5686 12.6533 13.9919 12.8296 13.2883L15.968 0.8029C16.1451 0.100093 15.8001 -0.198621 15.2045 0.139091Z" fill="white"/>
<path fill-rule="evenodd" clip-rule="evenodd" d="M6.96152 12.9442L5.74114 12.2462C5.20459 11.9421 4.94749 12.2994 5.17105 13.0441C5.17105 13.0441 6.30399 16.8511 6.27308 16.9876C6.23955 17.1195 7.36196 14.7259 7.36196 14.7259C7.67824 14.0536 7.49807 13.2484 6.96152 12.9442Z" fill="white"/>
</svg>
